<svg 
xmlns="http://www.w3.org/2000/svg" 
version="1.1" 
xmlns:xlink="http://www.w3.org/1999/xlink" 
width="1000" 
height="1000">
<rect width="1000" height="1000" rx="200" ry="200" fill="#555555"></rect>
<g transform="matrix(7.079646017699115,0,0,7.079646017699115,101.51991150442478,146.01769911504425)">
<svg xmlns="http://www.w3.org/2000/svg" version="1.1" xmlns:xlink="http://www.w3.org/1999/xlink"  width="113" height="100">
<svg width="113" height="100" viewBox="0 0 113 100" fill="none" xmlns="http://www.w3.org/2000/svg">
<path d="M28.5547 11.9141H30.4947L30.9764 10.0348C32.091 5.68648 35.9716 2.5 40.625 2.5C46.1388 2.5 50.625 6.98618 50.625 12.5V85.9375C50.625 92.3302 45.4552 97.5 39.0625 97.5C33.9793 97.5 29.7006 94.1946 28.1505 89.5926L27.4621 87.549L25.3396 87.9299C24.6621 88.0516 24.0386 88.125 23.4375 88.125C17.0448 88.125 11.875 82.9552 11.875 76.5625C11.875 75.7996 11.9544 75.0427 12.1019 74.2886L12.4948 72.2808L10.6043 71.4986C5.84276 69.5283 2.5 64.8331 2.5 59.375C2.5 54.5231 5.15734 50.3231 9.11727 48.0462L11.131 46.8883L10.1239 44.795C9.26322 43.0061 8.75 41.0899 8.75 39.0625C8.75 33.591 12.1059 28.8949 16.9073 26.9217L18.8961 26.1044L18.3855 24.0157C18.2162 23.3229 18.125 22.6041 18.125 21.875C18.125 16.3935 22.5588 11.9276 28.0282 11.8755C28.1208 11.8885 28.3218 11.9141 28.5547 11.9141ZM27.9562 11.8654C27.9563 11.8654 27.9582 11.8656 27.9623 11.8661C27.9583 11.8656 27.9561 11.8654 27.9562 11.8654ZM102.384 44.7778L101.354 46.8794L103.383 48.0462C107.343 50.3231 110 54.5231 110 59.375C110 64.8331 106.657 69.5283 101.896 71.4986L100.005 72.2808L100.398 74.2886C100.546 75.0428 100.625 75.7996 100.625 76.5625C100.625 82.9552 95.4552 88.125 89.0625 88.125C88.4614 88.125 87.8379 88.0516 87.1604 87.9299L85.0379 87.549L84.3495 89.5926C82.7994 94.1946 78.5207 97.5 73.4375 97.5C67.0448 97.5 61.875 92.3302 61.875 85.9375V12.5C61.875 6.96919 66.3586 2.5 71.875 2.5C76.5284 2.5 80.409 5.68648 81.5236 10.0348L82.0053 11.9141H83.9453C84.0962 11.9141 84.2239 11.9034 84.3122 11.894C84.3708 11.8877 84.4276 11.8803 84.4633 11.8754C89.9366 11.923 94.375 16.3906 94.375 21.875C94.375 22.5738 94.2727 23.3013 94.1025 24.067L93.6459 26.1217L95.5927 26.9217C100.394 28.8949 103.75 33.591 103.75 39.0625C103.75 41.1021 103.25 43.0128 102.384 44.7778Z" fill="white" stroke="black" stroke-width="5"></path>
</svg>
</svg>
</g>
</svg>